<?xml version="1.0" encoding="UTF-8"?>
<svg version="1.1" xmlns="http://www.w3.org/2000/svg" width="512" height="512">
<path d="M0 0 C1.54300781 0.29801514 1.54300781 0.29801514 3.1171875 0.60205078 C52.6807568 10.5192218 96.43762168 33.17715334 133 68 C133.898396 68.85537354 133.898396 68.85537354 134.81494141 69.72802734 C143.16517029 77.73778238 150.81210504 85.96319443 157.70263672 95.26269531 C158.98787142 96.98375856 160.3042016 98.676388 161.62890625 100.3671875 C174.68759248 117.2766344 184.95462123 136.24927136 193 156 C193.3098584 156.74427246 193.6197168 157.48854492 193.93896484 158.25537109 C204.59215701 184.11930115 211.04705262 213.27192709 211.203125 241.3203125 C211.21018463 242.17350067 211.21724426 243.02668884 211.22451782 243.9057312 C211.67747755 314.77099904 189.35120321 379.1835193 140 431 C139.14462646 431.898396 139.14462646 431.898396 138.27197266 432.81494141 C130.26221762 441.16517029 122.03680557 448.81210504 112.73730469 455.70263672 C111.01624144 456.98787142 109.323612 458.3042016 107.6328125 459.62890625 C90.7233656 472.68759248 71.75072864 482.95462123 52 491 C51.25572754 491.3098584 50.51145508 491.6197168 49.74462891 491.93896484 C23.88069885 502.59215701 -5.27192709 509.04705262 -33.3203125 509.203125 C-34.17350067 509.21018463 -35.02668884 509.21724426 -35.9057312 509.22451782 C-72.16280345 509.45626737 -72.16280345 509.45626737 -90 506 C-91.02867187 505.80132324 -92.05734375 505.60264648 -93.1171875 505.39794922 C-124.39827567 499.13891854 -154.0202457 488.13528977 -181 471 C-182.03769531 470.34644531 -183.07539063 469.69289063 -184.14453125 469.01953125 C-187.14313847 467.07264437 -190.07824107 465.06045261 -193 463 C-193.59603027 462.58057129 -194.19206055 462.16114258 -194.80615234 461.72900391 C-204.98569806 454.50439356 -214.19039305 446.54701642 -223.12011719 437.83300781 C-224.90486218 436.09276555 -226.70476141 434.36967118 -228.5078125 432.6484375 C-235.57064527 425.83288115 -241.80113843 418.63234255 -247.67041016 410.76953125 C-248.97178981 409.03754451 -250.30078164 407.33040953 -251.63671875 405.625 C-291.93832708 353.42651059 -307.92652491 283.9941024 -299.875 219 C-299.34803068 215.31153944 -298.70873308 211.65764855 -298 208 C-297.80132324 206.97132813 -297.60264648 205.94265625 -297.39794922 204.8828125 C-287.48861074 155.35838828 -264.80960205 111.54847209 -230 75 C-229.42975098 74.40106934 -228.85950195 73.80213867 -228.27197266 73.18505859 C-220.22356853 64.79453775 -211.94361876 57.15110992 -202.61279297 50.21142578 C-201.10902432 49.08189202 -199.63329997 47.91528759 -198.16015625 46.74609375 C-184.38107867 35.94314232 -168.83677711 27.38699376 -153 20 C-152.3723877 19.70287109 -151.74477539 19.40574219 -151.09814453 19.09960938 C-105.27184836 -2.44637776 -49.84582463 -9.65849631 0 0 Z " fill="#3CB53F" transform="translate(301,3)"/>
<path d="M0 0 C17.16 0 34.32 0 52 0 C56.29 7.26 60.58 14.52 65 22 C69.73692661 29.67703197 69.73692661 29.67703197 74.49609375 37.33984375 C78.8466846 44.34545535 83.11422318 51.40149586 87.38314819 58.45703125 C91.43705424 65.15680859 95.51061699 71.84289713 99.640625 78.49609375 C100.01475021 79.09973251 100.38887543 79.70337128 100.77433777 80.32530212 C102.56928753 83.22114065 104.36840857 86.11410726 106.17504883 89.00268555 C107.1267395 90.53662964 107.1267395 90.53662964 108.09765625 92.1015625 C108.65976807 93.00213379 109.22187988 93.90270508 109.80102539 94.83056641 C111 97 111 97 111 99 C111.66 99 112.32 99 113 99 C113.27674561 98.26910156 113.55349121 97.53820312 113.83862305 96.78515625 C114.92481066 94.18031533 116.14515689 91.86246589 117.58203125 89.4375 C118.09499756 88.56939697 118.60796387 87.70129395 119.13647461 86.80688477 C119.96610718 85.41747681 119.96610718 85.41747681 120.8125 84 C121.3907251 83.02667725 121.9689502 82.05335449 122.56469727 81.05053711 C127.513439 72.75035169 132.58911527 64.53201079 137.6953125 56.328125 C141.10447915 50.84513295 144.46209442 45.33153863 147.8125 39.8125 C153.81082728 29.9324005 159.86094444 20.08499592 165.93481445 10.2512207 C166.581521 9.20281006 167.22822754 8.15439941 167.89453125 7.07421875 C168.47050049 6.14182373 169.04646973 5.20942871 169.63989258 4.2487793 C170.99698342 2.07288517 170.99698342 2.07288517 172 0 C189.16 0 206.32 0 224 0 C224 73.92 224 147.84 224 224 C207.17 224 190.34 224 173 224 C172.67 181.76 172.34 139.52 172 96 C160.13128169 115.54583312 160.13128169 115.54583312 148.27294922 135.09790039 C142.00345467 145.43781298 135.7083814 155.76158312 129.375 166.0625 C128.73618896 167.10229004 128.09737793 168.14208008 127.43920898 169.21337891 C126.22679988 171.18204636 125.00741826 173.14644103 123.78027344 175.10595703 C122.54747751 177.1100112 121.35518538 179.13933542 120.19628906 181.18701172 C119.6081543 182.19650879 119.02001953 183.20600586 118.4140625 184.24609375 C117.90053223 185.15931396 117.38700195 186.07253418 116.85791016 187.01342773 C115 189 115 189 111.92919922 189.46533203 C109 189 109 189 106.71875 186.30859375 C105.95714097 185.03110561 105.21934587 183.73925489 104.5 182.4375 C103.63046568 180.95818204 102.76065808 179.47902468 101.890625 178 C101.42720703 177.19433594 100.96378906 176.38867188 100.48632812 175.55859375 C98.38580044 171.9427051 96.19829514 168.38216137 94.01367188 164.81665039 C92.21531261 161.88087371 90.42671674 158.939348 88.640625 155.99609375 C85.09854765 150.16113692 81.55001129 144.33013226 78 138.5 C74.39288173 132.57522039 70.78677964 126.64982836 67.18359375 120.72265625 C66.55646484 119.69140625 65.92933594 118.66015625 65.28320312 117.59765625 C64.09009656 115.63565878 62.89736242 113.67343476 61.70507812 111.7109375 C61.16173828 110.81761719 60.61839844 109.92429687 60.05859375 109.00390625 C59.35174438 107.84097046 59.35174438 107.84097046 58.63061523 106.65454102 C56.44113992 103.09021026 54.21703415 99.54725463 52 96 C51.67 138.24 51.34 180.48 51 224 C34.17 224 17.34 224 0 224 C0 150.08 0 76.16 0 0 Z " fill="#FEFEFE" transform="translate(144,144)"/>
</svg>
